<svg width="418" height="418" viewBox="0 0 418 418" fill="none" xmlns="http://www.w3.org/2000/svg">
<g clip-path="url(#clip0_541_28)">
<path d="M346.55 137.92L279.341 70.7107C240.288 31.6582 176.972 31.6582 137.919 70.7107L70.7108 137.919C31.6584 176.971 31.6584 240.288 70.7108 279.34L137.92 346.549C176.972 385.602 240.289 385.602 279.341 346.549L346.55 279.341C385.602 240.289 385.602 176.972 346.55 137.92Z" fill="#441BCE"/>
<path d="M68.5898 277.22L208.63 137.179L348.671 277.22L279.341 346.549C260.587 365.303 235.152 375.839 208.63 375.839C182.109 375.839 156.673 365.303 137.92 346.549L68.5898 277.22Z" fill="#00D1FA"/>
<path d="M277.219 205.769L208.63 137.179L140.04 205.768C126.351 192.123 117.072 174.683 113.406 155.706C109.822 137.234 111.672 118.12 118.732 100.678C124.794 85.7191 134.499 72.5118 146.963 62.2564C159.427 52.001 174.256 45.0226 190.103 41.9552C208.574 38.3717 227.689 40.222 245.13 47.2818C260.089 53.3442 273.297 63.0482 283.552 75.5124C293.808 87.9765 300.786 102.806 303.853 118.652C307.437 137.124 305.587 156.239 298.527 173.68C293.655 185.701 286.408 196.615 277.219 205.769Z" fill="#F67373"/>
<path d="M277.22 205.768L243.279 239.709L208.63 205.06L173.982 239.709L140.041 205.768L208.63 137.178L277.22 205.768Z" fill="white"/>
</g>
<defs>
<clipPath id="clip0_541_28">
<rect width="417.26" height="417.26" fill="white"/>
</clipPath>
</defs>
</svg>
