<svg width="1064" height="418" viewBox="0 0 1064 418" fill="none" xmlns="http://www.w3.org/2000/svg">
<g clip-path="url(#clip0_541_34)">
<path d="M346.55 137.92L279.341 70.7107C240.288 31.6582 176.972 31.6582 137.919 70.7107L70.7108 137.919C31.6584 176.971 31.6584 240.288 70.7108 279.34L137.92 346.549C176.972 385.602 240.289 385.602 279.341 346.549L346.55 279.341C385.602 240.289 385.602 176.972 346.55 137.92Z" fill="#441BCE"/>
<path d="M68.5898 277.22L208.63 137.179L348.671 277.22L279.341 346.549C260.587 365.303 235.152 375.839 208.63 375.839C182.109 375.839 156.673 365.303 137.92 346.549L68.5898 277.22Z" fill="#00D1FA"/>
<path d="M277.219 205.769L208.63 137.179L140.04 205.768C126.351 192.123 117.072 174.683 113.406 155.706C109.822 137.234 111.672 118.12 118.732 100.678C124.794 85.7191 134.499 72.5118 146.963 62.2564C159.427 52.001 174.256 45.0226 190.103 41.9552C208.574 38.3717 227.689 40.222 245.13 47.2818C260.089 53.3442 273.297 63.0482 283.552 75.5124C293.808 87.9765 300.786 102.806 303.853 118.652C307.437 137.124 305.587 156.239 298.527 173.68C293.655 185.701 286.408 196.615 277.219 205.769Z" fill="#F67373"/>
<path d="M277.22 205.768L243.279 239.709L208.63 205.06L173.982 239.709L140.041 205.768L208.63 137.178L277.22 205.768Z" fill="white"/>
</g>
<path d="M472.578 242L452.712 206.912H444.198V242H426.138V151.958H459.936C466.902 151.958 472.836 153.205 477.738 155.699C482.64 158.107 486.295 161.418 488.703 165.632C491.197 169.76 492.444 174.404 492.444 179.564C492.444 185.498 490.724 190.873 487.284 195.689C483.844 200.419 478.727 203.687 471.933 205.493L493.476 242H472.578ZM444.198 193.367H459.291C464.193 193.367 467.848 192.206 470.256 189.884C472.664 187.476 473.868 184.165 473.868 179.951C473.868 175.823 472.664 172.641 470.256 170.405C467.848 168.083 464.193 166.922 459.291 166.922H444.198V193.367ZM504.515 206.009C504.515 198.785 505.934 192.378 508.772 186.788C511.696 181.198 515.609 176.898 520.511 173.888C525.499 170.878 531.046 169.373 537.152 169.373C542.484 169.373 547.128 170.448 551.084 172.598C555.126 174.748 558.351 177.457 560.759 180.725V170.534H578.948V242H560.759V231.551C558.437 234.905 555.212 237.7 551.084 239.936C547.042 242.086 542.355 243.161 537.023 243.161C531.003 243.161 525.499 241.613 520.511 238.517C515.609 235.421 511.696 231.078 508.772 225.488C505.934 219.812 504.515 213.319 504.515 206.009ZM560.759 206.267C560.759 201.881 559.899 198.14 558.179 195.044C556.459 191.862 554.137 189.454 551.213 187.82C548.289 186.1 545.15 185.24 541.796 185.24C538.442 185.24 535.346 186.057 532.508 187.691C529.67 189.325 527.348 191.733 525.542 194.915C523.822 198.011 522.962 201.709 522.962 206.009C522.962 210.309 523.822 214.093 525.542 217.361C527.348 220.543 529.67 222.994 532.508 224.714C535.432 226.434 538.528 227.294 541.796 227.294C545.15 227.294 548.289 226.477 551.213 224.843C554.137 223.123 556.459 220.715 558.179 217.619C559.899 214.437 560.759 210.653 560.759 206.267ZM636.569 169.502C645.083 169.502 651.963 172.211 657.209 177.629C662.455 182.961 665.078 190.443 665.078 200.075V242H647.018V202.526C647.018 196.85 645.599 192.507 642.761 189.497C639.923 186.401 636.053 184.853 631.151 184.853C626.163 184.853 622.207 186.401 619.283 189.497C616.445 192.507 615.026 196.85 615.026 202.526V242H596.966V170.534H615.026V179.435C617.434 176.339 620.487 173.931 624.185 172.211C627.969 170.405 632.097 169.502 636.569 169.502ZM710.625 169.373C715.957 169.373 720.644 170.448 724.686 172.598C728.728 174.662 731.91 177.371 734.232 180.725V170.534H752.421V242.516C752.421 249.138 751.088 255.029 748.422 260.189C745.756 265.435 741.757 269.563 736.425 272.573C731.093 275.669 724.643 277.217 717.075 277.217C706.927 277.217 698.585 274.852 692.049 270.122C685.599 265.392 681.944 258.942 681.084 250.772H699.015C699.961 254.04 701.982 256.62 705.078 258.512C708.26 260.49 712.087 261.479 716.559 261.479C721.805 261.479 726.062 259.888 729.33 256.706C732.598 253.61 734.232 248.88 734.232 242.516V231.422C731.91 234.776 728.685 237.571 724.557 239.807C720.515 242.043 715.871 243.161 710.625 243.161C704.605 243.161 699.101 241.613 694.113 238.517C689.125 235.421 685.169 231.078 682.245 225.488C679.407 219.812 677.988 213.319 677.988 206.009C677.988 198.785 679.407 192.378 682.245 186.788C685.169 181.198 689.082 176.898 693.984 173.888C698.972 170.878 704.519 169.373 710.625 169.373ZM734.232 206.267C734.232 201.881 733.372 198.14 731.652 195.044C729.932 191.862 727.61 189.454 724.686 187.82C721.762 186.1 718.623 185.24 715.269 185.24C711.915 185.24 708.819 186.057 705.981 187.691C703.143 189.325 700.821 191.733 699.015 194.915C697.295 198.011 696.435 201.709 696.435 206.009C696.435 210.309 697.295 214.093 699.015 217.361C700.821 220.543 703.143 222.994 705.981 224.714C708.905 226.434 712.001 227.294 715.269 227.294C718.623 227.294 721.762 226.477 724.686 224.843C727.61 223.123 729.932 220.715 731.652 217.619C733.372 214.437 734.232 210.653 734.232 206.267ZM779.599 162.02C776.417 162.02 773.751 161.031 771.601 159.053C769.537 156.989 768.505 154.452 768.505 151.442C768.505 148.432 769.537 145.938 771.601 143.96C773.751 141.896 776.417 140.864 779.599 140.864C782.781 140.864 785.404 141.896 787.468 143.96C789.618 145.938 790.693 148.432 790.693 151.442C790.693 154.452 789.618 156.989 787.468 159.053C785.404 161.031 782.781 162.02 779.599 162.02ZM788.5 170.534V242H770.44V170.534H788.5ZM881.414 151.958V242H863.354V203.687H824.783V242H806.723V151.958H824.783V188.981H863.354V151.958H881.414ZM967.037 170.534V242H948.848V232.97C946.526 236.066 943.473 238.517 939.689 240.323C935.991 242.043 931.949 242.903 927.563 242.903C921.973 242.903 917.028 241.742 912.728 239.42C908.428 237.012 905.031 233.529 902.537 228.971C900.129 224.327 898.925 218.823 898.925 212.459V170.534H916.985V209.879C916.985 215.555 918.404 219.941 921.242 223.037C924.08 226.047 927.95 227.552 932.852 227.552C937.84 227.552 941.753 226.047 944.591 223.037C947.429 219.941 948.848 215.555 948.848 209.879V170.534H967.037ZM1003.3 180.983C1005.62 177.543 1008.8 174.748 1012.84 172.598C1016.97 170.448 1021.66 169.373 1026.9 169.373C1033.01 169.373 1038.51 170.878 1043.42 173.888C1048.4 176.898 1052.32 181.198 1055.15 186.788C1058.08 192.292 1059.54 198.699 1059.54 206.009C1059.54 213.319 1058.08 219.812 1055.15 225.488C1052.32 231.078 1048.4 235.421 1043.42 238.517C1038.51 241.613 1033.01 243.161 1026.9 243.161C1021.57 243.161 1016.88 242.129 1012.84 240.065C1008.89 237.915 1005.7 235.163 1003.3 231.809V242H985.236V146.54H1003.3V180.983ZM1041.09 206.009C1041.09 201.709 1040.19 198.011 1038.38 194.915C1036.66 191.733 1034.34 189.325 1031.42 187.691C1028.58 186.057 1025.48 185.24 1022.13 185.24C1018.86 185.24 1015.77 186.1 1012.84 187.82C1010 189.454 1007.68 191.862 1005.88 195.044C1004.16 198.226 1003.3 201.967 1003.3 206.267C1003.3 210.567 1004.16 214.308 1005.88 217.49C1007.68 220.672 1010 223.123 1012.84 224.843C1015.77 226.477 1018.86 227.294 1022.13 227.294C1025.48 227.294 1028.58 226.434 1031.42 224.714C1034.34 222.994 1036.66 220.543 1038.38 217.361C1040.19 214.179 1041.09 210.395 1041.09 206.009Z" fill="black"/>
<defs>
<clipPath id="clip0_541_34">
<rect width="417.26" height="417.26" fill="white"/>
</clipPath>
</defs>
</svg>
